<svg xmlns="http://www.w3.org/2000/svg" xmlns:xlink="http://www.w3.org/1999/xlink" width="450" zoomAndPan="magnify" viewBox="0 0 337.5 262.499992" height="350" preserveAspectRatio="xMidYMid meet" version="1.2"><defs><clipPath id="b79e3287d0"><path d="M 9 0 L 327.832031 0 L 327.832031 262 L 9 262 Z M 9 0 "/></clipPath></defs><g id="faa8a772fd"><g clip-rule="nonzero" clip-path="url(#b79e3287d0)"><path style=" stroke:none;fill-rule:nonzero;fill:#00aaff;fill-opacity:1;" d="M 103.730469 80.339844 L 189.5 80.339844 C 203.371094 80.339844 215.980469 74.664062 225.125 65.519531 C 234.269531 56.378906 239.941406 43.769531 239.941406 29.898438 L 239.941406 -14.035156 L 240.660156 -14.035156 L 240.660156 29.898438 C 240.660156 43.96875 234.90625 56.757812 225.632812 66.035156 C 216.738281 74.925781 204.601562 80.585938 191.207031 81.03125 L 191.207031 81.058594 L 103.726562 81.058594 C 77.882812 81.058594 54.382812 91.632812 37.351562 108.671875 C 20.320312 125.703125 9.742188 149.203125 9.742188 175.046875 L 9.742188 261.800781 L 9.019531 261.800781 L 9.019531 175.046875 C 9.019531 149 19.675781 125.324219 36.839844 108.160156 C 54.007812 90.996094 77.6875 80.339844 103.730469 80.339844 Z M 327.75 73.441406 L 327.75 -14.035156 L 327.027344 -14.035156 L 327.027344 73.441406 C 327.027344 99.289062 316.457031 122.785156 299.421875 139.816406 C 282.386719 156.855469 258.890625 167.429688 233.042969 167.429688 L 146.289062 167.429688 L 146.289062 167.4375 C 132.605469 167.703125 120.195312 173.402344 111.140625 182.457031 C 101.867188 191.730469 96.109375 204.523438 96.109375 218.589844 L 96.109375 261.800781 L 96.832031 261.800781 L 96.832031 218.589844 C 96.832031 204.71875 102.507812 192.113281 111.648438 182.96875 C 120.792969 173.824219 133.402344 168.148438 147.273438 168.148438 L 233.042969 168.148438 C 259.089844 168.148438 282.765625 157.492188 299.933594 140.328125 C 317.097656 123.164062 327.75 99.488281 327.75 73.441406 Z M 191.207031 153.632812 L 225.785156 153.632812 C 249.835938 153.632812 271.699219 143.796875 287.546875 127.945312 C 303.394531 112.097656 313.234375 90.234375 313.234375 66.1875 L 313.234375 -14.035156 L 312.511719 -14.035156 L 312.511719 66.1875 C 312.511719 90.03125 302.757812 111.71875 287.039062 127.4375 C 271.316406 143.15625 249.636719 152.914062 225.785156 152.914062 L 140.015625 152.914062 C 123.953125 152.914062 109.34375 159.484375 98.757812 170.074219 C 88.167969 180.664062 81.597656 195.269531 81.597656 211.332031 L 81.597656 261.800781 L 82.320312 261.800781 L 82.320312 211.332031 C 82.320312 195.46875 88.808594 181.042969 99.265625 170.582031 C 109.726562 160.125 124.148438 153.632812 140.015625 153.632812 Z M 191.207031 139.117188 L 218.527344 139.117188 C 240.582031 139.117188 260.628906 130.097656 275.164062 115.5625 C 289.699219 101.03125 298.71875 80.980469 298.71875 58.925781 L 298.71875 -14.035156 L 298 -14.035156 L 298 58.925781 C 298 80.78125 289.058594 100.648438 274.652344 115.050781 C 260.25 129.457031 240.382812 138.398438 218.527344 138.398438 L 132.757812 138.398438 C 114.699219 138.398438 98.28125 145.785156 86.378906 157.6875 C 74.472656 169.59375 67.082031 186.011719 67.082031 204.074219 L 67.082031 261.800781 L 67.804688 261.800781 L 67.804688 204.074219 C 67.804688 186.210938 75.113281 169.972656 86.886719 158.199219 C 98.660156 146.425781 114.898438 139.117188 132.761719 139.117188 Z M 191.207031 124.601562 L 211.269531 124.601562 C 231.328125 124.601562 249.5625 116.398438 262.78125 103.179688 C 276 89.957031 284.207031 71.726562 284.207031 51.671875 L 284.207031 -14.035156 L 283.484375 -14.035156 L 283.484375 51.671875 C 283.484375 71.527344 275.363281 89.582031 262.269531 102.671875 C 249.183594 115.761719 231.128906 123.886719 211.269531 123.886719 L 125.503906 123.886719 C 105.445312 123.886719 87.210938 132.089844 73.992188 145.308594 C 60.773438 158.53125 52.566406 176.761719 52.566406 196.816406 L 52.566406 261.800781 L 53.289062 261.800781 L 53.289062 196.816406 C 53.289062 176.960938 61.414062 158.90625 74.503906 145.816406 C 87.589844 132.730469 105.644531 124.605469 125.503906 124.605469 L 191.207031 124.605469 Z M 191.207031 110.089844 L 204.015625 110.089844 C 222.074219 110.089844 238.496094 102.703125 250.398438 90.800781 C 262.300781 78.894531 269.691406 62.472656 269.691406 44.414062 L 269.691406 -14.035156 L 268.964844 -14.035156 L 268.964844 44.410156 C 268.964844 62.277344 261.660156 78.511719 249.886719 90.285156 C 238.113281 102.058594 221.875 109.367188 204.011719 109.367188 L 118.242188 109.367188 C 96.191406 109.367188 76.144531 118.390625 61.609375 132.921875 C 47.070312 147.457031 38.050781 167.503906 38.050781 189.558594 L 38.050781 261.800781 L 38.773438 261.800781 L 38.773438 189.5625 C 38.773438 167.707031 47.714844 147.839844 62.117188 133.4375 C 76.519531 119.035156 96.390625 110.089844 118.242188 110.089844 Z M 191.207031 95.574219 L 196.753906 95.574219 C 212.824219 95.574219 227.425781 89.003906 238.015625 78.414062 C 248.605469 67.824219 255.175781 53.21875 255.175781 37.15625 L 255.175781 -14.035156 L 254.457031 -14.035156 L 254.457031 37.15625 C 254.457031 53.019531 247.960938 67.445312 237.503906 77.90625 C 227.050781 88.359375 212.625 94.855469 196.753906 94.855469 L 110.988281 94.855469 C 86.9375 94.855469 65.074219 104.691406 49.226562 120.542969 C 33.378906 136.390625 23.539062 158.253906 23.539062 182.300781 L 23.539062 261.800781 L 24.261719 261.800781 L 24.261719 182.300781 C 24.261719 158.457031 34.015625 136.769531 49.738281 121.050781 C 65.457031 105.332031 87.136719 95.574219 110.988281 95.574219 Z M 191.207031 95.574219 "/></g></g></svg>