<svg xmlns="http://www.w3.org/2000/svg" xmlns:xlink="http://www.w3.org/1999/xlink" width="450" zoomAndPan="magnify" viewBox="0 0 337.5 262.499992" height="350" preserveAspectRatio="xMidYMid meet" version="1.2"><defs><clipPath id="f7b1e0f091"><path d="M 9.160156 0 L 327.832031 0 L 327.832031 262 L 9.160156 262 Z M 9.160156 0 "/></clipPath></defs><g id="d12cd8ac57"><g clip-rule="nonzero" clip-path="url(#f7b1e0f091)"><path style=" stroke:none;fill-rule:nonzero;fill:#00aaff;fill-opacity:1;" d="M 233.265625 80.339844 L 147.492188 80.339844 C 133.625 80.339844 121.011719 74.664062 111.871094 65.519531 C 102.726562 56.378906 97.050781 43.769531 97.050781 29.898438 L 97.050781 -14.035156 L 96.332031 -14.035156 L 96.332031 29.898438 C 96.332031 43.96875 102.085938 56.757812 111.363281 66.035156 C 120.257812 74.925781 132.390625 80.585938 145.789062 81.03125 L 145.789062 81.058594 L 233.265625 81.058594 C 259.113281 81.058594 282.609375 91.632812 299.640625 108.671875 C 316.675781 125.703125 327.25 149.203125 327.25 175.046875 L 327.25 261.800781 L 327.972656 261.800781 L 327.972656 175.046875 C 327.972656 149 317.316406 125.324219 300.152344 108.160156 C 282.984375 90.996094 259.308594 80.339844 233.265625 80.339844 Z M 9.242188 73.441406 L 9.242188 -14.035156 L 9.964844 -14.035156 L 9.964844 73.441406 C 9.964844 99.289062 20.535156 122.785156 37.574219 139.816406 C 54.605469 156.855469 78.105469 167.429688 103.949219 167.429688 L 190.707031 167.429688 L 190.707031 167.4375 C 204.386719 167.703125 216.796875 173.402344 225.851562 182.457031 C 235.125 191.730469 240.882812 204.523438 240.882812 218.589844 L 240.882812 261.800781 L 240.160156 261.800781 L 240.160156 218.589844 C 240.160156 204.71875 234.484375 192.113281 225.34375 182.96875 C 216.203125 173.824219 203.589844 168.148438 189.722656 168.148438 L 103.949219 168.148438 C 77.902344 168.148438 54.230469 157.492188 37.0625 140.328125 C 19.898438 123.164062 9.242188 99.488281 9.242188 73.441406 Z M 145.789062 153.632812 L 111.210938 153.632812 C 87.160156 153.632812 65.296875 143.796875 49.445312 127.945312 C 33.597656 112.097656 23.757812 90.234375 23.757812 66.1875 L 23.757812 -14.035156 L 24.480469 -14.035156 L 24.480469 66.1875 C 24.480469 90.03125 34.238281 111.71875 49.957031 127.4375 C 65.679688 143.15625 87.359375 152.914062 111.210938 152.914062 L 196.976562 152.914062 C 213.039062 152.914062 227.648438 159.484375 238.238281 170.074219 C 248.828125 180.664062 255.398438 195.269531 255.398438 211.332031 L 255.398438 261.800781 L 254.675781 261.800781 L 254.675781 211.332031 C 254.675781 195.46875 248.183594 181.042969 237.726562 170.582031 C 227.269531 160.125 212.84375 153.632812 196.976562 153.632812 Z M 145.789062 139.117188 L 118.464844 139.117188 C 96.414062 139.117188 76.363281 130.097656 61.828125 115.5625 C 47.292969 101.03125 38.273438 80.980469 38.273438 58.925781 L 38.273438 -14.035156 L 38.992188 -14.035156 L 38.992188 58.925781 C 38.992188 80.78125 47.9375 100.648438 62.339844 115.050781 C 76.742188 129.457031 96.609375 138.398438 118.464844 138.398438 L 204.234375 138.398438 C 222.292969 138.398438 238.710938 145.785156 250.617188 157.6875 C 262.519531 169.59375 269.910156 186.011719 269.910156 204.074219 L 269.910156 261.800781 L 269.1875 261.800781 L 269.1875 204.074219 C 269.1875 186.210938 261.882812 169.972656 250.109375 158.199219 C 238.335938 146.425781 222.09375 139.117188 204.234375 139.117188 Z M 145.789062 124.601562 L 125.722656 124.601562 C 105.664062 124.601562 87.433594 116.398438 74.210938 103.179688 C 60.992188 89.957031 52.789062 71.726562 52.789062 51.671875 L 52.789062 -14.035156 L 53.511719 -14.035156 L 53.511719 51.671875 C 53.511719 71.527344 61.632812 89.582031 74.722656 102.671875 C 87.8125 115.761719 105.863281 123.886719 125.722656 123.886719 L 211.492188 123.886719 C 231.550781 123.886719 249.78125 132.089844 263.003906 145.308594 C 276.222656 158.53125 284.425781 176.761719 284.425781 196.816406 L 284.425781 261.800781 L 283.703125 261.800781 L 283.703125 196.816406 C 283.703125 176.960938 275.578125 158.90625 262.492188 145.816406 C 249.402344 132.730469 231.351562 124.605469 211.492188 124.605469 L 145.789062 124.605469 Z M 145.789062 110.089844 L 132.980469 110.089844 C 114.921875 110.089844 98.5 102.703125 86.59375 90.800781 C 74.695312 78.894531 67.304688 62.472656 67.304688 44.414062 L 67.304688 -14.035156 L 68.027344 -14.035156 L 68.027344 44.410156 C 68.027344 62.277344 75.332031 78.511719 87.105469 90.285156 C 98.878906 102.058594 115.117188 109.367188 132.980469 109.367188 L 218.75 109.367188 C 240.804688 109.367188 260.851562 118.390625 275.382812 132.921875 C 289.921875 147.457031 298.941406 167.503906 298.941406 189.558594 L 298.941406 261.800781 L 298.21875 261.800781 L 298.21875 189.5625 C 298.21875 167.707031 289.277344 147.839844 274.875 133.4375 C 260.472656 119.035156 240.601562 110.089844 218.75 110.089844 Z M 145.789062 95.574219 L 140.238281 95.574219 C 124.171875 95.574219 109.566406 89.003906 98.976562 78.414062 C 88.386719 67.824219 81.816406 53.21875 81.816406 37.15625 L 81.816406 -14.035156 L 82.535156 -14.035156 L 82.535156 37.15625 C 82.535156 53.019531 89.03125 67.445312 99.488281 77.90625 C 109.945312 88.359375 124.371094 94.855469 140.238281 94.855469 L 226.003906 94.855469 C 250.054688 94.855469 271.917969 104.691406 287.769531 120.542969 C 303.617188 136.390625 313.457031 158.253906 313.457031 182.300781 L 313.457031 261.800781 L 312.734375 261.800781 L 312.734375 182.300781 C 312.734375 158.457031 302.980469 136.769531 287.257812 121.050781 C 271.539062 105.332031 249.855469 95.574219 226.003906 95.574219 Z M 145.789062 95.574219 "/></g></g></svg>